<svg xmlns="http://www.w3.org/2000/svg" style="display: none;">
  <!-- Philippine Sun Icon (from flag) -->
  <symbol id="icon-ph-sun" viewBox="0 0 24 24">
    <circle cx="12" cy="12" r="5" fill="#FCD116"/>
    <path fill="#FCD116" d="M12,2 L13,5 L12,2 Z M12,19 L13,22 L12,19 Z M2,12 L5,13 L2,12 Z M19,12 L22,13 L19,12 Z M4.9,4.9 L7.3,6.7 L4.9,4.9 Z M16.7,16.7 L19.1,18.5 L16.7,16.7 Z M4.9,19.1 L7.3,17.3 L4.9,19.1 Z M16.7,7.3 L19.1,5.5 L16.7,7.3 Z"/>
    <path fill="#FCD116" d="M12,4 L12.5,7 L11.5,7 Z M12,17 L12.5,20 L11.5,20 Z M4,12 L7,12.5 L7,11.5 Z M17,12 L20,12.5 L20,11.5 Z M5.9,5.9 L8.3,7.7 L7.3,6.7 Z M15.7,15.7 L18.1,17.5 L17.1,16.5 Z M5.9,18.1 L8.3,16.3 L7.3,17.3 Z M15.7,8.3 L18.1,6.5 L17.1,7.5 Z"/>
  </symbol>
  
  <!-- Sampaguita (National Flower) -->
  <symbol id="icon-sampaguita" viewBox="0 0 24 24">
    <circle cx="12" cy="12" r="3" fill="#FFFFFF" stroke="#006400" stroke-width="0.5"/>
    <path fill="#FFFFFF" stroke="#006400" stroke-width="0.5" d="M12,5 C13.5,7 16,7 18,6 C17,8 17,10.5 19,12 C17,13.5 17,16 18,18 C16,17 13.5,17 12,19 C10.5,17 8,17 6,18 C7,16 7,13.5 5,12 C7,10.5 7,8 6,6 C8,7 10.5,7 12,5 Z"/>
    <circle cx="12" cy="12" r="1.5" fill="#FCD116"/>
  </symbol>
  
  <!-- Jeepney Icon -->
  <symbol id="icon-jeepney" viewBox="0 0 24 24">
    <path fill="#CE1126" d="M3,8 L3,16 L5,16 L5,18 L7,18 L7,16 L17,16 L17,18 L19,18 L19,16 L21,16 L21,8 L3,8 Z"/>
    <path fill="#0038A8" d="M4,9 L20,9 L20,15 L4,15 L4,9 Z"/>
    <path fill="#FCD116" d="M3,6 L21,6 L21,8 L3,8 L3,6 Z"/>
    <circle cx="7" cy="17" r="1" fill="#333"/>
    <circle cx="17" cy="17" r="1" fill="#333"/>
    <path fill="#FFF" d="M5,11 L7,11 L7,13 L5,13 L5,11 Z M8,11 L10,11 L10,13 L8,13 L8,11 Z M11,11 L13,11 L13,13 L11,13 L11,11 Z M14,11 L16,11 L16,13 L14,13 L14,11 Z M17,11 L19,11 L19,13 L17,13 L17,11 Z"/>
  </symbol>
  
  <!-- Bahay Kubo (Traditional Filipino House) -->
  <symbol id="icon-bahay-kubo" viewBox="0 0 24 24">
    <path fill="#8B4513" d="M5,12 L5,20 L19,20 L19,12 L5,12 Z"/>
    <path fill="#A0522D" d="M3,12 L12,5 L21,12 L3,12 Z"/>
    <path fill="#8B4513" d="M8,20 L8,15 L11,15 L11,20 L8,20 Z M13,20 L13,15 L16,15 L16,20 L13,20 Z"/>
    <path fill="#006400" d="M1,12 L3,12 L3,13 L1,13 L1,12 Z M21,12 L23,12 L23,13 L21,13 L21,12 Z"/>
  </symbol>
  
  <!-- Anahaw (National Leaf) -->
  <symbol id="icon-anahaw" viewBox="0 0 24 24">
    <path fill="#006400" d="M12,3 C8,3 4,7 4,12 C4,17 8,21 12,21 C16,21 20,17 20,12 C20,7 16,3 12,3 Z"/>
    <path fill="#008000" d="M12,5 C9,5 6,8 6,12 C6,16 9,19 12,19 C15,19 18,16 18,12 C18,8 15,5 12,5 Z"/>
    <path fill="none" stroke="#FFFFFF" stroke-width="0.2" d="M12,5 L12,19 M6,12 L18,12 M8,8 L16,16 M16,8 L8,16 M7,10 L17,14 M17,10 L7,14"/>
  </symbol>
  
  <!-- Sarimanok (Mythical Bird) -->
  <symbol id="icon-sarimanok" viewBox="0 0 24 24">
    <path fill="#FCD116" d="M12,3 C10,5 9,8 9,12 C9,16 10,19 12,21 C14,19 15,16 15,12 C15,8 14,5 12,3 Z"/>
    <path fill="#CE1126" d="M12,3 C11,4 10,6 10,8 C14,8 14,8 14,8 C14,6 13,4 12,3 Z"/>
    <path fill="#0038A8" d="M10,8 L14,8 L14,10 L10,10 Z"/>
    <path fill="#CE1126" d="M10,10 L14,10 L12,14 Z"/>
    <path fill="none" stroke="#000" stroke-width="0.3" d="M8,12 C6,13 5,15 5,17 M16,12 C18,13 19,15 19,17"/>
    <circle cx="5" cy="17" r="1" fill="#FCD116"/>
    <circle cx="19" cy="17" r="1" fill="#FCD116"/>
  </symbol>
  
  <!-- Kalabaw (Water Buffalo - National Animal) -->
  <symbol id="icon-kalabaw" viewBox="0 0 24 24">
    <path fill="#333" d="M5,12 C3,12 2,13 2,14 C2,15 3,16 5,16 L7,16 L7,14 L5,14 L5,12 Z M19,12 C21,12 22,13 22,14 C22,15 21,16 19,16 L17,16 L17,14 L19,14 L19,12 Z"/>
    <path fill="#666" d="M7,10 L17,10 C18,10 19,11 19,12 L19,16 C19,17 18,18 17,18 L7,18 C6,18 5,17 5,16 L5,12 C5,11 6,10 7,10 Z"/>
    <circle cx="8" cy="13" r="1" fill="#000"/>
    <circle cx="16" cy="13" r="1" fill="#000"/>
    <path fill="none" stroke="#000" stroke-width="0.5" d="M10,15 C11,16 13,16 14,15"/>
  </symbol>
  
  <!-- Mango (National Fruit) -->
  <symbol id="icon-mango" viewBox="0 0 24 24">
    <path fill="#FFD700" d="M12,5 C9,5 7,7 7,10 C7,14 9,19 12,19 C15,19 17,14 17,10 C17,7 15,5 12,5 Z"/>
    <path fill="#006400" d="M12,3 L13,5 L12,5 L11,5 Z"/>
    <path fill="none" stroke="#006400" stroke-width="0.5" d="M12,5 C9,5 7,7 7,10 C7,14 9,19 12,19 C15,19 17,14 17,10 C17,7 15,5 12,5 Z"/>
  </symbol>
</svg>