<svg xmlns="http://www.w3.org/2000/svg" viewBox="0 0 180 90" width="180" height="90">
  <!-- Blue field -->
  <rect width="180" height="45" fill="#0038a8"/>
  <!-- Red field -->
  <rect y="45" width="180" height="45" fill="#ce1126"/>
  <!-- White triangle -->
  <polygon points="0,0 0,90 90,45" fill="white"/>
  <!-- Sun -->
  <circle cx="45" cy="45" r="12" fill="#fcd116"/>
  <!-- Sun rays -->
  <g fill="#fcd116">
    <polygon points="45,25 47,33 49,25 47,27"/>
    <polygon points="45,65 47,57 49,65 47,63"/>
    <polygon points="25,45 33,47 25,49 27,47"/>
    <polygon points="65,45 57,47 65,49 63,47"/>
    <polygon points="31,31 37,37 29,39 33,35"/>
    <polygon points="59,59 53,53 61,51 57,55"/>
    <polygon points="31,59 37,53 29,51 33,55"/>
    <polygon points="59,31 53,37 61,39 57,35"/>
  </g>
  <!-- Stars -->
  <g fill="#fcd116">
    <polygon points="20,20 22,25 17,22 23,22 18,25" transform="rotate(15,20,20)"/>
    <polygon points="20,70 22,75 17,72 23,72 18,75" transform="rotate(15,20,70)"/>
    <polygon points="70,45 72,50 67,47 73,47 68,50" transform="rotate(15,70,45)"/>
  </g>
</svg>