<svg xmlns="http://www.w3.org/2000/svg" style="display: none;">
  <!-- Philippine Flag Icon -->
  <symbol id="icon-ph-flag" viewBox="0 0 24 24">
    <path fill="#0038A8" d="M2,6h20v12H2V6z"/>
    <path fill="#CE1126" d="M2,6h20v6H2V6z"/>
    <path fill="#FFFFFF" d="M2,6l10,6l-10,6V6z"/>
    <path fill="#FCD116" d="M7.5,12l-1.3,0.4l0.5-1.2l-1.2-0.5l1.3-0.4l-0.5-1.2l1,0.8l0.2-1.3l0.7,1.1l0.7-1.1l0.2,1.3l1-0.8l-0.5,1.2l1.3,0.4l-1.2,0.5l0.5,1.2L8.9,12l-0.2,1.3l-0.7-1.1l-0.7,1.1L7.1,12H7.5z"/>
    <circle fill="#FCD116" cx="4.5" cy="9" r="0.5"/>
    <circle fill="#FCD116" cx="4.5" cy="15" r="0.5"/>
    <circle fill="#FCD116" cx="9.5" cy="9" r="0.5"/>
  </symbol>
  
  <!-- Ballot Box Icon -->
  <symbol id="icon-ballot-box" viewBox="0 0 24 24">
    <path d="M20,4H4C2.9,4,2,4.9,2,6v12c0,1.1,0.9,2,2,2h16c1.1,0,2-0.9,2-2V6C22,4.9,21.1,4,20,4z M20,18H4V6h16V18z"/>
    <path d="M7,7h10v2H7V7z"/>
    <path d="M7,11h10v2H7V11z"/>
    <path d="M7,15h7v2H7V15z"/>
    <path d="M17,15h0.5c0.3,0,0.5,0.2,0.5,0.5v1c0,0.3-0.2,0.5-0.5,0.5H17c-0.3,0-0.5-0.2-0.5-0.5v-1C16.5,15.2,16.7,15,17,15z"/>
  </symbol>
  
  <!-- Handshake Icon -->
  <symbol id="icon-handshake" viewBox="0 0 24 24">
    <path d="M21.3,10.8l-3-3c-0.4-0.4-1-0.4-1.4,0l-0.9,0.9l-5.6-5.6c-0.4-0.4-1-0.4-1.4,0l-3,3c-0.4,0.4-0.4,1,0,1.4l0.9,0.9l-3.6,3.6 c-0.4,0.4-0.4,1,0,1.4l6,6c0.2,0.2,0.5,0.3,0.7,0.3s0.5-0.1,0.7-0.3l3.6-3.6l0.9,0.9c0.2,0.2,0.5,0.3,0.7,0.3s0.5-0.1,0.7-0.3l6-6 C21.7,11.8,21.7,11.2,21.3,10.8z M12,19.4l-6-6l3.6-3.6l6,6L12,19.4z M19.9,11.5l-4.6,4.6l-6-6l4.6-4.6l0.9,0.9l-3.3,3.3 c-0.4,0.4-0.4,1,0,1.4s1,0.4,1.4,0l3.3-3.3L19.9,11.5z"/>
  </symbol>
</svg>